<svg xmlns="http://www.w3.org/2000/svg" aria-hidden="true">
  <defs>
    <!-- ===== Gradients ===== -->
    <radialGradient id="coin-face" cx="35%" cy="30%" r="70%">
      <stop offset="0%" stop-color="#fff7c8"/>
      <stop offset="55%" stop-color="#f1cc58"/>
      <stop offset="100%" stop-color="#c1931f"/>
    </radialGradient>

    <linearGradient id="coin-rim" x1="0%" y1="0%" x2="100%" y2="100%">
      <stop offset="0%" stop-color="#fbe7a1"/>
      <stop offset="50%" stop-color="#b98616"/>
      <stop offset="100%" stop-color="#ffe9a9"/>
    </linearGradient>

    <linearGradient id="dice-face" x1="0%" y1="0%" x2="100%" y2="100%">
      <stop offset="0%" stop-color="#6a7d8f"/>
      <stop offset="100%" stop-color="#2a3440"/>
    </linearGradient>

    <!-- ===== Coin faces ===== -->
    <symbol id="coin-heads" viewBox="0 0 100 100">
      <ellipse cx="50" cy="85" rx="26" ry="6" fill="#000" opacity="0.23"/>
      <circle cx="50" cy="50" r="42" fill="url(#coin-rim)"/>
      <circle cx="50" cy="50" r="37" fill="url(#coin-face)" stroke="#f7e29a" stroke-width="2"/>
      <path d="M22 34c10-12 28-20 48-14" fill="none" stroke="#fff" stroke-opacity="0.35" stroke-width="4" stroke-linecap="round"/>
      <text x="50" y="62"
            text-anchor="middle"
            font-size="34"
            font-weight="700"
            fill="#745208"
            font-family="system-ui, -apple-system, Segoe UI, Roboto, Arial, sans-serif">H</text>
    </symbol>

    <symbol id="coin-tails" viewBox="0 0 100 100">
      <ellipse cx="50" cy="85" rx="26" ry="6" fill="#000" opacity="0.23"/>
      <circle cx="50" cy="50" r="42" fill="url(#coin-rim)"/>
      <circle cx="50" cy="50" r="37" fill="url(#coin-face)" stroke="#f7e29a" stroke-width="2"/>
      <path d="M22 34c10-12 28-20 48-14" fill="none" stroke="#fff" stroke-opacity="0.35" stroke-width="4" stroke-linecap="round"/>
      <text x="50" y="62"
            text-anchor="middle"
            font-size="34"
            font-weight="700"
            fill="#745208"
            font-family="system-ui, -apple-system, Segoe UI, Roboto, Arial, sans-serif">T</text>
    </symbol>

    <!-- ===== Dice faces (physical look) ===== -->
    <!-- Face 1 -->
    <symbol id="dice-face-1" viewBox="0 0 100 100">
      <rect x="10" y="10" width="80" height="80" rx="16" fill="url(#dice-face)" stroke="#d8e2ec" stroke-opacity="0.55" stroke-width="2.2"/>
      <rect x="16" y="16" width="68" height="68" rx="12" fill="none" stroke="#fff" stroke-opacity="0.14" stroke-width="1.8"/>
      <path d="M20 24c10-8 38-12 56-7" fill="none" stroke="#fff" stroke-opacity="0.20" stroke-width="4" stroke-linecap="round"/>
      <circle cx="50" cy="50" r="5.5" fill="#f8fbff"/>
    </symbol>

    <!-- Face 2 -->
    <symbol id="dice-face-2" viewBox="0 0 100 100">
      <rect x="10" y="10" width="80" height="80" rx="16" fill="url(#dice-face)" stroke="#d8e2ec" stroke-opacity="0.55" stroke-width="2.2"/>
      <rect x="16" y="16" width="68" height="68" rx="12" fill="none" stroke="#fff" stroke-opacity="0.14" stroke-width="1.8"/>
      <path d="M20 24c10-8 38-12 56-7" fill="none" stroke="#fff" stroke-opacity="0.20" stroke-width="4" stroke-linecap="round"/>
      <circle cx="34" cy="34" r="5.2" fill="#f8fbff"/>
      <circle cx="66" cy="66" r="5.2" fill="#f8fbff"/>
    </symbol>

    <!-- Face 3 -->
    <symbol id="dice-face-3" viewBox="0 0 100 100">
      <rect x="10" y="10" width="80" height="80" rx="16" fill="url(#dice-face)" stroke="#d8e2ec" stroke-opacity="0.55" stroke-width="2.2"/>
      <rect x="16" y="16" width="68" height="68" rx="12" fill="none" stroke="#fff" stroke-opacity="0.14" stroke-width="1.8"/>
      <path d="M20 24c10-8 38-12 56-7" fill="none" stroke="#fff" stroke-opacity="0.20" stroke-width="4" stroke-linecap="round"/>
      <circle cx="34" cy="34" r="5.2" fill="#f8fbff"/>
      <circle cx="50" cy="50" r="5.2" fill="#f8fbff"/>
      <circle cx="66" cy="66" r="5.2" fill="#f8fbff"/>
    </symbol>

    <!-- Face 4 -->
    <symbol id="dice-face-4" viewBox="0 0 100 100">
      <rect x="10" y="10" width="80" height="80" rx="16" fill="url(#dice-face)" stroke="#d8e2ec" stroke-opacity="0.55" stroke-width="2.2"/>
      <rect x="16" y="16" width="68" height="68" rx="12" fill="none" stroke="#fff" stroke-opacity="0.14" stroke-width="1.8"/>
      <path d="M20 24c10-8 38-12 56-7" fill="none" stroke="#fff" stroke-opacity="0.20" stroke-width="4" stroke-linecap="round"/>
      <circle cx="34" cy="34" r="5.2" fill="#f8fbff"/>
      <circle cx="66" cy="34" r="5.2" fill="#f8fbff"/>
      <circle cx="34" cy="66" r="5.2" fill="#f8fbff"/>
      <circle cx="66" cy="66" r="5.2" fill="#f8fbff"/>
    </symbol>

    <!-- Face 5 -->
    <symbol id="dice-face-5" viewBox="0 0 100 100">
      <rect x="10" y="10" width="80" height="80" rx="16" fill="url(#dice-face)" stroke="#d8e2ec" stroke-opacity="0.55" stroke-width="2.2"/>
      <rect x="16" y="16" width="68" height="68" rx="12" fill="none" stroke="#fff" stroke-opacity="0.14" stroke-width="1.8"/>
      <path d="M20 24c10-8 38-12 56-7" fill="none" stroke="#fff" stroke-opacity="0.20" stroke-width="4" stroke-linecap="round"/>
      <circle cx="34" cy="34" r="5.2" fill="#f8fbff"/>
      <circle cx="66" cy="34" r="5.2" fill="#f8fbff"/>
      <circle cx="50" cy="50" r="5.2" fill="#f8fbff"/>
      <circle cx="34" cy="66" r="5.2" fill="#f8fbff"/>
      <circle cx="66" cy="66" r="5.2" fill="#f8fbff"/>
    </symbol>

    <!-- Face 6 -->
    <symbol id="dice-face-6" viewBox="0 0 100 100">
      <rect x="10" y="10" width="80" height="80" rx="16" fill="url(#dice-face)" stroke="#d8e2ec" stroke-opacity="0.55" stroke-width="2.2"/>
      <rect x="16" y="16" width="68" height="68" rx="12" fill="none" stroke="#fff" stroke-opacity="0.14" stroke-width="1.8"/>
      <path d="M20 24c10-8 38-12 56-7" fill="none" stroke="#fff" stroke-opacity="0.20" stroke-width="4" stroke-linecap="round"/>
      <circle cx="33" cy="30" r="5.0" fill="#f8fbff"/>
      <circle cx="33" cy="50" r="5.0" fill="#f8fbff"/>
      <circle cx="33" cy="70" r="5.0" fill="#f8fbff"/>
      <circle cx="67" cy="30" r="5.0" fill="#f8fbff"/>
      <circle cx="67" cy="50" r="5.0" fill="#f8fbff"/>
      <circle cx="67" cy="70" r="5.0" fill="#f8fbff"/>
    </symbol>
  </defs>
</svg>
